<svg xmlns="http://www.w3.org/2000/svg" viewBox="0 0 370 100" preserveAspectRatio="xMidYMid meet" class="css-8aabad" id="febcddch"><defs id="SvgjsDefs2745"/><g id="SvgjsG2746" featurekey="9id2mP-0" transform="matrix(3.125,0,0,3.125,0,0)" fill="#fff"><g xmlns="http://www.w3.org/2000/svg" display="none"><rect x="-69.333" y="-18.667" display="inline" fill="#fff" width="473.333" height="236"/></g><g xmlns="http://www.w3.org/2000/svg" display="none"><g display="inline"><g><polygon fill="#fff" points="32,15.976 15.976,32 0,16.024    "/></g><g><polygon points="23.347,15.989 15.989,23.347 8.653,16.011    "/></g><g><polygon fill="#fff" points="0,16.024 16.024,0 32,15.976    "/></g><g><polygon fill="#fff" points="8.653,16.011 16.011,8.653 23.347,15.989    "/></g></g></g><g xmlns="http://www.w3.org/2000/svg" display="none"><g display="inline"><path fill="#fff" d="M16,1c8.271,0,15,6.729,15,15s-6.729,15-15,15S1,24.271,1,16S7.729,1,16,1 M16,0C7.163,0,0,7.163,0,16    s7.163,16,16,16s16-7.163,16-16S24.837,0,16,0L16,0z"/></g><g display="inline"><path fill="#fff" d="M13.034,6.153l2.259,2.259L16,9.119l0.707-0.707l2.259-2.259l0.744,0.744l-2.259,2.259l-0.707,0.707    l0.707,0.707l2.259,2.259l-0.744,0.744l-2.259-2.259L16,10.607l-0.707,0.707l-2.259,2.259l-0.744-0.744l2.259-2.259l0.707-0.707    l-0.707-0.707L12.29,6.897L13.034,6.153 M18.966,4.738L16,7.705l-2.966-2.966l-2.158,2.158l2.966,2.966l-2.966,2.966l2.158,2.158    L16,12.021l2.966,2.966l2.158-2.158l-2.966-2.966l2.966-2.966L18.966,4.738L18.966,4.738z"/></g><g display="inline"><path fill="#fff" d="M13.034,18.427l2.259,2.259L16,21.393l0.707-0.707l2.259-2.259l0.744,0.744l-2.259,2.259l-0.707,0.707    l0.707,0.707l2.259,2.259l-0.744,0.744l-2.259-2.259L16,22.881l-0.707,0.707l-2.259,2.259l-0.744-0.744l2.259-2.259l0.707-0.707    l-0.707-0.707l-2.259-2.259L13.034,18.427 M18.966,17.013L16,19.979l-2.966-2.966l-2.158,2.158l2.966,2.966l-2.966,2.966    l2.158,2.158L16,24.295l2.966,2.966l2.158-2.158l-2.966-2.966l2.966-2.966L18.966,17.013L18.966,17.013z"/></g></g><g xmlns="http://www.w3.org/2000/svg" display="none"><g display="inline"><rect x="2" y="2" fill="#fff" width="28" height="28"/></g><g display="inline"><g><path fill="#fff" d="M16,31.5C7.453,31.5,0.5,24.547,0.5,16S7.453,0.5,16,0.5S31.5,7.453,31.5,16S24.547,31.5,16,31.5z"/></g><g><g><path d="M16,1c8.271,0,15,6.729,15,15s-6.729,15-15,15S1,24.271,1,16S7.729,1,16,1 M16,0C7.163,0,0,7.163,0,16s7.163,16,16,16      s16-7.163,16-16S24.837,0,16,0L16,0z"/></g></g></g><g display="inline"><g><polygon fill="#fff" points="16,11.314 13.034,14.28 11.582,12.829 14.549,9.863 11.582,6.896 13.034,5.445 16,8.412      18.966,5.445 20.418,6.896 17.451,9.863 20.418,12.829 18.966,14.28    "/></g><g><path d="M13.034,6.153l2.259,2.259L16,9.119l0.707-0.707l2.259-2.259l0.744,0.744l-2.259,2.259l-0.707,0.707l0.707,0.707     l2.259,2.259l-0.744,0.744l-2.259-2.259L16,10.607l-0.707,0.707l-2.259,2.259l-0.744-0.744l2.259-2.259l0.707-0.707l-0.707-0.707     L12.29,6.897L13.034,6.153 M18.966,4.738L16,7.705l-2.966-2.966l-2.158,2.158l2.966,2.966l-2.966,2.966l2.158,2.158L16,12.021     l2.966,2.966l2.158-2.158l-2.966-2.966l2.966-2.966L18.966,4.738L18.966,4.738z"/></g></g><g display="inline"><g><polygon fill="#fff" points="16,23.589 13.034,26.555 11.582,25.104 14.549,22.137 11.582,19.171 13.034,17.72 16,20.686      18.966,17.72 20.418,19.171 17.451,22.137 20.418,25.104 18.966,26.555    "/></g><g><path d="M13.034,18.427l2.259,2.259L16,21.393l0.707-0.707l2.259-2.259l0.744,0.744l-2.259,2.259l-0.707,0.707l0.707,0.707     l2.259,2.259l-0.744,0.744l-2.259-2.259L16,22.881l-0.707,0.707l-2.259,2.259l-0.744-0.744l2.259-2.259l0.707-0.707l-0.707-0.707     l-2.259-2.259L13.034,18.427 M18.966,17.013L16,19.979l-2.966-2.966l-2.158,2.158l2.966,2.966l-2.966,2.966l2.158,2.158     L16,24.295l2.966,2.966l2.158-2.158l-2.966-2.966l2.966-2.966L18.966,17.013L18.966,17.013z"/></g></g></g><g xmlns="http://www.w3.org/2000/svg"><g><path d="M0,16.024L15.976,32L32,15.976L16.024,0L0,16.024z M15.989,23.347l-7.336-7.336l14.694-0.022L15.989,23.347z"/></g></g></g><g id="SvgjsG2747" featurekey="zfl5BF-0" transform="matrix(2.8153154604447233,0,0,2.8153154604447233,116.17117194035703,-6.429497549787172)" fill="#fff"><path d="M8.32 9.2 l-4.96 0 l0 3.14 l4.6 0 l0 2 l-4.6 0 l0 5.66 l-2 0 l0 -12.8 l6.96 0 l0 2 z M12.38 20 l-2 0 l0 -12.78 l2 0 l0 12.78 z M20.04 12.64 l5.1 0 l0 6.28 l-0.72 0.22 c-0.12 0.04 -0.28 0.08 -0.48 0.14 c-0.78 0.26 -2 0.66 -3.28 0.82 c-0.4 0.06 -0.78 0.08 -1.14 0.08 c-1.16 0 -2.12 -0.26 -2.88 -0.8 c-1.12 -0.82 -1.7 -2.2 -1.7 -4.08 l0 -3.52 c0 -1.88 0.58 -3.24 1.7 -4.06 c0.98 -0.72 2.34 -0.96 4.02 -0.74 c1.28 0.16 2.5 0.56 3.28 0.82 c0.2 0.06 0.36 0.12 0.48 0.16 l-0.56 1.9 c-0.16 -0.04 -0.32 -0.1 -0.52 -0.16 c-0.74 -0.24 -1.84 -0.6 -2.94 -0.74 c-1.16 -0.14 -2.04 -0.02 -2.58 0.38 c-0.58 0.42 -0.88 1.24 -0.88 2.44 l0 3.52 c0 1.2 0.3 2.04 0.88 2.46 c0.54 0.4 1.42 0.52 2.58 0.36 c1.02 -0.12 2.02 -0.44 2.74 -0.68 l0 -2.8 l-3.1 0 l0 -2 z M35.32 7.220000000000001 l2 0 l0 12.78 l-2 0 l0 -5.82 l-5.56 0 l0 5.82 l-2 0 l0 -12.78 l2 0 l0 4.96 l5.56 0 l0 -4.96 z M47.6 7.199999999999999 l0 2 l-3.12 0 l0 10.8 l-2 0 l0 -10.8 l-3.1 0 l0 -2 l8.22 0 z M65.1 8.9 c0.92 1.14 1.4 2.72 1.4 4.7 s-0.48 3.56 -1.4 4.7 c-0.5 0.62 -1.14 1.08 -1.88 1.4 s-1.58 0.48 -2.52 0.48 s-1.78 -0.16 -2.52 -0.48 s-1.38 -0.78 -1.88 -1.4 c-0.92 -1.14 -1.4 -2.72 -1.4 -4.7 s0.48 -3.56 1.4 -4.7 c0.5 -0.62 1.14 -1.1 1.88 -1.42 s1.58 -0.48 2.52 -0.48 s1.78 0.16 2.52 0.48 s1.38 0.8 1.88 1.42 z M63.56 17.04 c0.62 -0.76 0.94 -1.96 0.94 -3.44 c0 -1.5 -0.32 -2.68 -0.94 -3.44 s-1.58 -1.16 -2.86 -1.16 c-1.26 0 -2.22 0.4 -2.84 1.16 s-0.96 1.94 -0.96 3.44 c0 1.48 0.34 2.68 0.96 3.44 s1.58 1.14 2.84 1.14 c1.28 0 2.24 -0.38 2.86 -1.14 z M76.04 20 c-0.08 -1.8 -1.22 -2.92 -2.86 -4.28 l-2.76 0 l0 4.28 l-2 0 l0 -12.78 l1.38 0 l0.62 0 l3.48 0 c0.56 0 1.08 0.1 1.6 0.28 c0.5 0.2 0.98 0.5 1.36 0.86 c0.86 0.8 1.34 1.9 1.34 3.1 c0 1.22 -0.48 2.32 -1.34 3.1 c-0.32 0.32 -0.7 0.56 -1.1 0.76 c0.34 0.34 0.66 0.68 0.96 1.08 c0.84 1.08 1.26 2.24 1.32 3.52 l0 0.08 l-2 0 l0 0 z M70.42 13.719999999999999 l3.48 0 c1.12 0 2.3 -0.8 2.3 -2.26 s-1.18 -2.24 -2.3 -2.24 l-3.48 0 l0 4.5 z M85.06 12.64 l5.1 0 l0 6.28 l-0.72 0.22 c-0.12 0.04 -0.28 0.08 -0.48 0.14 c-0.78 0.26 -2 0.66 -3.28 0.82 c-0.4 0.06 -0.78 0.08 -1.14 0.08 c-1.16 0 -2.12 -0.26 -2.88 -0.8 c-1.12 -0.82 -1.7 -2.2 -1.7 -4.08 l0 -3.52 c0 -1.88 0.58 -3.24 1.7 -4.06 c0.98 -0.72 2.34 -0.96 4.02 -0.74 c1.28 0.16 2.5 0.56 3.28 0.82 c0.2 0.06 0.36 0.12 0.48 0.16 l-0.56 1.9 c-0.16 -0.04 -0.32 -0.1 -0.52 -0.16 c-0.74 -0.24 -1.84 -0.6 -2.94 -0.74 c-1.16 -0.14 -2.04 -0.02 -2.58 0.38 c-0.58 0.42 -0.88 1.24 -0.88 2.44 l0 3.52 c0 1.2 0.3 2.04 0.88 2.46 c0.54 0.4 1.42 0.52 2.58 0.36 c1.02 -0.12 2.02 -0.44 2.74 -0.68 l0 -2.8 l-3.1 0 l0 -2 z"/></g><g id="SvgjsG2748" featurekey="pYXC9J-0" transform="matrix(1.161139754120902,0,0,1.161139754120902,118.25829036881865,63.63695467894505)" fill="#fff"><path d="M6.54 5.84 c1.5067 0 2.8134 0.31 3.92 0.93 s1.9533 1.47 2.54 2.55 s0.88 2.28 0.88 3.6 s-0.32666 2.5234 -0.98 3.61 s-1.5667 1.9367 -2.74 2.55 s-2.48 0.92 -3.92 0.92 l-4.74 0 l0 -14.16 l5.04 0 z M5.94 18.2 c1.08 0 2.07 -0.21002 2.97 -0.63002 s1.6133 -1.0233 2.14 -1.81 s0.79 -1.7333 0.79 -2.84 c0 -1.6 -0.49666 -2.88 -1.49 -3.84 s-2.31 -1.44 -3.95 -1.44 l-2.98 0 l0 10.56 l2.52 0 z M29.404000000000003 5.84 l0 1.8 l-7.22 0 l0 4.22 l6.72 0 l0 1.8 l-6.72 0 l0 4.54 l7.58 0 l0 1.8 l-9.5 0 l0 -14.16 l9.14 0 z M38.828 5.84 l4.5 10.72 l0.08 0 l4.46 -10.72 l2.86 0 l0 14.16 l-1.92 0 l0 -11.64 l-0.04 0 l-4.78 11.64 l-1.28 0 l-4.78 -11.64 l-0.04 0 l0 11.64 l-1.92 0 l0 -14.16 l2.86 0 z M64.352 5.48 c2.1066 0 3.8634 0.69998 5.27 2.1 s2.11 3.18 2.11 5.34 c0 1.3733 -0.31334 2.63 -0.94 3.77 s-1.51 2.0366 -2.65 2.69 s-2.4034 0.98 -3.79 0.98 c-1.3733 0 -2.6266 -0.32334 -3.76 -0.97 s-2.02 -1.54 -2.66 -2.68 s-0.96 -2.4034 -0.96 -3.79 c0 -2.1066 0.69 -3.8734 2.07 -5.3 s3.15 -2.14 5.31 -2.14 z M59.012 12.92 c0 1.6 0.49998 2.94 1.5 4.02 s2.28 1.62 3.84 1.62 c1.5333 0 2.8066 -0.53334 3.82 -1.6 s1.52 -2.4134 1.52 -4.04 c0 -1.6133 -0.5 -2.9566 -1.5 -4.03 s-2.2866 -1.61 -3.86 -1.61 c-1.52 0 -2.7866 0.53334 -3.8 1.6 s-1.52 2.4134 -1.52 4.04 z M93.80000000000001 5.48 c2.1066 0 3.8634 0.69998 5.27 2.1 s2.11 3.18 2.11 5.34 c0 1.3733 -0.31334 2.63 -0.94 3.77 s-1.51 2.0366 -2.65 2.69 s-2.4034 0.98 -3.79 0.98 c-1.3733 0 -2.6266 -0.32334 -3.76 -0.97 s-2.02 -1.54 -2.66 -2.68 s-0.96 -2.4034 -0.96 -3.79 c0 -2.1066 0.69 -3.8734 2.07 -5.3 s3.15 -2.14 5.31 -2.14 z M88.46000000000001 12.92 c0 1.6 0.49998 2.94 1.5 4.02 s2.28 1.62 3.84 1.62 c1.5333 0 2.8066 -0.53334 3.82 -1.6 s1.52 -2.4134 1.52 -4.04 c0 -1.6133 -0.5 -2.9566 -1.5 -4.03 s-2.2866 -1.61 -3.86 -1.61 c-1.52 0 -2.7866 0.53334 -3.8 1.6 s-1.52 2.4134 -1.52 4.04 z M112.644 5.84 c1.3867 0 2.4734 0.34666 3.26 1.04 s1.18 1.6667 1.18 2.92 c0 0.94666 -0.32334 1.7733 -0.97 2.48 s-1.4767 1.1267 -2.49 1.26 l-0.02 0 l4.02 6.46 l-2.4 0 l-3.6 -6.24 l-2.14 0 l0 6.24 l-1.92 0 l0 -14.16 l5.08 0 z M112.084 12.08 c1 0 1.7433 -0.18336 2.23 -0.55002 s0.73 -0.94332 0.73 -1.73 c0 -1.52 -0.98666 -2.28 -2.96 -2.28 l-2.6 0 l0 4.56 l2.6 0 z M129.928 5.48 c2.36 0 4.1134 0.6133 5.26 1.84 l-1.36 1.46 c-1.0533 -1 -2.36 -1.5 -3.92 -1.5 s-2.84 0.53666 -3.84 1.61 s-1.5 2.4166 -1.5 4.03 c0 1.6267 0.53 2.9734 1.59 4.04 s2.3634 1.6 3.91 1.6 c1.4667 0 2.6266 -0.24666 3.48 -0.74 l0 -3.94 l-3.14 0 l0 -1.8 l5.06 0 l0 6.98 c-0.69334 0.41334 -1.53 0.73334 -2.51 0.96 s-1.93 0.34 -2.85 0.34 c-2.2266 0 -4.0466 -0.69334 -5.46 -2.08 s-2.12 -3.1734 -2.12 -5.36 c0 -2.1066 0.69666 -3.8734 2.09 -5.3 s3.1634 -2.14 5.31 -2.14 z"/></g></svg>