<?xml version="1.0" encoding="UTF-8" standalone="no"?>
<svg
   class="css-ze2te4 css-qd6ojx"
   viewBox="0 0 70.00000000000001 69.22651933701658"
   version="1.1"
   id="svg4"
   sodipodi:docname="logo_light.svg"
   inkscape:version="1.3 (0e150ed, 2023-07-21)"
   xmlns:inkscape="http://www.inkscape.org/namespaces/inkscape"
   xmlns:sodipodi="http://sodipodi.sourceforge.net/DTD/sodipodi-0.dtd"
   xmlns="http://www.w3.org/2000/svg"
   xmlns:svg="http://www.w3.org/2000/svg">
  <defs
     id="defs4" />
  <sodipodi:namedview
     id="namedview4"
     pagecolor="#ffffff"
     bordercolor="#000000"
     borderopacity="0.25"
     inkscape:showpageshadow="2"
     inkscape:pageopacity="0.0"
     inkscape:pagecheckerboard="true"
     inkscape:deskcolor="#d1d1d1"
     inkscape:zoom="9.1265625"
     inkscape:cx="35.007704"
     inkscape:cy="34.678993"
     inkscape:window-width="1392"
     inkscape:window-height="1052"
     inkscape:window-x="0"
     inkscape:window-y="0"
     inkscape:window-maximized="0"
     inkscape:current-layer="g1" />
  <g
     transform="translate(-4.640883977900553, -4.640883977900553) scale(0.7734806629834255)"
     class="css-1e98oqk"
     fill="#ffffff"
     id="g4">
    <g
       id="g3">
      <g
         id="g1">
        <path
           d="M 20,39 H 9 C 7.343,39 6,40.343 6,42 V 91 H 23 V 42 c 0,-1.657 -1.343,-3 -3,-3 z M 69,36.21 V 9 C 69,7.343 67.657,6 66,6 H 51 c -1.657,0 -3,1.343 -3,3 v 26.196 c 2.904,-1.3 6.118,-2.03 9.5,-2.03 4.18,0.001 8.103,1.111 11.5,3.044 z M 34.167,56.5 c 0,-7.837 3.889,-14.78 9.833,-19.013 V 26 c 0,-1.657 -1.343,-3 -3,-3 H 30 c -1.657,0 -3,1.343 -3,3 V 91 H 44 V 75.513 C 38.055,71.28 34.167,64.337 34.167,56.5 Z M 48,77.804 V 91 H 69 V 76.79 c -3.397,1.933 -7.32,3.043 -11.5,3.043 -3.382,0 -6.596,-0.729 -9.5,-2.029 z M 95.036,86.965 75.8,67.729 C 77.816,64.456 79,60.619 79,56.5 79,44.645 69.355,35 57.5,35 45.645,35 36,44.645 36,56.5 36,68.355 45.645,78 57.5,78 c 4.118,0 7.956,-1.184 11.229,-3.2 l 19.236,19.236 c 0.976,0.976 2.255,1.464 3.535,1.464 1.279,0 2.559,-0.488 3.536,-1.464 1.952,-1.953 1.952,-5.119 0,-7.071 z M 57.5,72 C 48.953,72 42,65.047 42,56.5 42,47.953 48.953,41 57.5,41 66.047,41 73,47.953 73,56.5 73,65.047 66.047,72 57.5,72 Z"
           id="path1"
           style="fill:#000000" />
      </g>
    </g>
  </g>
</svg>
