<?xml version="1.0" encoding="UTF-8" standalone="no"?>
<svg
   class="css-ze2te4 css-17o3t2r"
   viewBox="0 0 70.00000000000001 80.54635054228324"
   version="1.1"
   id="svg7"
   sodipodi:docname="logo_icon.svg"
   inkscape:version="1.3 (0e150ed, 2023-07-21)"
   xmlns:inkscape="http://www.inkscape.org/namespaces/inkscape"
   xmlns:sodipodi="http://sodipodi.sourceforge.net/DTD/sodipodi-0.dtd"
   xmlns="http://www.w3.org/2000/svg"
   xmlns:svg="http://www.w3.org/2000/svg">
  <defs
     id="defs7" />
  <sodipodi:namedview
     id="namedview7"
     pagecolor="#ffffff"
     bordercolor="#000000"
     borderopacity="0.25"
     inkscape:showpageshadow="2"
     inkscape:pageopacity="0.0"
     inkscape:pagecheckerboard="0"
     inkscape:deskcolor="#d1d1d1"
     inkscape:zoom="7.2"
     inkscape:cx="35"
     inkscape:cy="40.208333"
     inkscape:window-width="1392"
     inkscape:window-height="1052"
     inkscape:window-x="0"
     inkscape:window-y="0"
     inkscape:window-maximized="0"
     inkscape:current-layer="svg7" />
  <g
     transform="matrix(-0.92715232,0,0,0.92715232,81.86755,-6.3278157)"
     class="css-1mun45u"
     fill="#111111"
     id="g7">
    <g
       id="g6">
      <path
         fill="{{COLOR}}"
         d="m 28.3,21.6 c -0.1,0 -0.3,0 -0.4,-0.1 L 13.4,15.1 c -0.4,-0.2 -0.6,-0.5 -0.6,-0.9 0,-0.4 0.2,-0.8 0.6,-0.9 L 27.9,6.9 c 0.3,-0.1 0.5,-0.1 0.8,0 l 14.5,6.4 c 0.4,0.2 0.6,0.5 0.6,0.9 0,0.4 -0.2,0.8 -0.6,0.9 l -14.5,6.4 c -0.1,0 -0.2,0.1 -0.4,0.1 z m -12,-7.5 12.1,5.3 12.1,-5.3 -12.2,-5.3 z"
         id="path1" />
      <rect
         x="27.299999"
         y="20.6"
         fill="{{COLOR}}"
         width="2"
         height="72.099998"
         id="rect1" />
      <path
         fill="{{COLOR}}"
         d="m 28.3,93.7 c -0.1,0 -0.3,0 -0.4,-0.1 L 13.4,87.2 C 13,87 12.8,86.7 12.8,86.3 V 14.1 h 2 v 71.5 l 13.5,6 13.5,-6 V 14.1 h 2 v 72.1 c 0,0.4 -0.2,0.8 -0.6,0.9 l -14.5,6.4 c -0.1,0.1 -0.2,0.2 -0.4,0.2 z"
         id="path2" />
      <path
         fill="{{COLOR}}"
         d="m 50.8,35.7 c -0.1,0 -0.3,0 -0.4,-0.1 l -7.9,-3.5 0.8,-1.8 7.5,3.3 L 62.9,28.3 50.8,23 43.3,26.3 42.5,24.5 50.4,21 c 0.3,-0.1 0.5,-0.1 0.8,0 l 14.5,6.4 c 0.4,0.2 0.6,0.5 0.6,0.9 0,0.4 -0.2,0.8 -0.6,0.9 l -14.5,6.4 c -0.2,0.1 -0.3,0.1 -0.4,0.1 z"
         id="path3" />
      <rect
         x="49.799999"
         y="34.700001"
         fill="{{COLOR}}"
         width="2"
         height="48.099998"
         id="rect3" />
      <path
         fill="{{COLOR}}"
         d="m 50.8,83.8 c -0.1,0 -0.3,0 -0.4,-0.1 l -7.9,-3.5 0.8,-1.8 7.5,3.3 13.5,-6 V 28.3 h 2 v 48.1 c 0,0.4 -0.2,0.8 -0.6,0.9 l -14.5,6.4 c -0.2,0.1 -0.3,0.1 -0.4,0.1 z"
         id="path4" />
      <path
         fill="{{COLOR}}"
         d="m 72.8,50.1 c -0.1,0 -0.3,0 -0.4,-0.1 l -7.5,-3.3 0.8,-1.8 7.1,3.1 12.1,-5.3 -12.1,-5.3 -7.1,3.1 -0.8,-1.8 7.5,-3.3 c 0.3,-0.1 0.5,-0.1 0.8,0 l 14.5,6.4 c 0.4,0.2 0.6,0.5 0.6,0.9 0,0.4 -0.2,0.8 -0.6,0.9 L 73.2,50 c -0.1,0 -0.2,0.1 -0.4,0.1 z"
         id="path5" />
      <rect
         x="71.800003"
         y="49.099998"
         fill="{{COLOR}}"
         width="2"
         height="23.9"
         id="rect5" />
      <path
         fill="{{COLOR}}"
         d="m 72.8,73.9 c -0.1,0 -0.3,0 -0.4,-0.1 l -7.6,-3.3 0.8,-1.8 7.2,3.2 13.5,-6 V 42.7 h 2 v 23.9 c 0,0.4 -0.2,0.8 -0.6,0.9 l -14.5,6.4 c -0.1,0 -0.2,0 -0.4,0 z"
         id="path6" />
    </g>
  </g>
</svg>
