<?xml version="1.0" encoding="UTF-8" standalone="no"?>
<svg
   viewBox="0 0 450 450.00001"
   preserveAspectRatio="xMidYMid"
   class="css-8aabad"
   id="dbeggdcd"
   version="1.1"
   sodipodi:docname="progress_tracer_light_ret_circle_blue.svg"
   inkscape:export-filename="progress_tracer_light_circle_blue.png"
   inkscape:export-xdpi="96"
   inkscape:export-ydpi="96"
   width="450"
   height="450"
   inkscape:version="1.3 (0e150ed, 2023-07-21)"
   xmlns:inkscape="http://www.inkscape.org/namespaces/inkscape"
   xmlns:sodipodi="http://sodipodi.sourceforge.net/DTD/sodipodi-0.dtd"
   xmlns="http://www.w3.org/2000/svg"
   xmlns:svg="http://www.w3.org/2000/svg">
  <sodipodi:namedview
     id="namedview8"
     pagecolor="#ffffff"
     bordercolor="#000000"
     borderopacity="0.25"
     inkscape:showpageshadow="2"
     inkscape:pageopacity="0.0"
     inkscape:pagecheckerboard="0"
     inkscape:deskcolor="#d1d1d1"
     inkscape:zoom="0.77955933"
     inkscape:cx="-55.159368"
     inkscape:cy="123.78788"
     inkscape:window-width="1920"
     inkscape:window-height="1052"
     inkscape:window-x="0"
     inkscape:window-y="0"
     inkscape:window-maximized="1"
     inkscape:current-layer="dbeggdcd" />
  <defs
     id="SvgjsDefs3000" />
  <circle
     style="font-variation-settings:'opsz' 24.6, 'wght' 900;display:inline;fill:#4a6df7;stroke:#ffffff;stroke-width:5.30262;stroke-linecap:round;stroke-linejoin:round;stroke-miterlimit:0;fill-opacity:1"
     id="path9"
     cx="225.81732"
     cy="225.81732"
     r="224.18268" />
  <g
     id="g8"
     transform="matrix(1.0637491,0,0,1.0637491,39.717595,99.28871)"
     style="fill:#f9f9f9">
    <g
       id="SvgjsG3001"
       featurekey="YvLwfh-0"
       transform="matrix(-1.5452539,0,0,1.5452539,253.44591,-10.54636)"
       fill="#111111"
       style="fill:#f9f9f9">
      <g
         id="g6"
         style="fill:#f9f9f9">
        <path
           fill="#111111"
           d="m 28.3,21.6 c -0.1,0 -0.3,0 -0.4,-0.1 L 13.4,15.1 c -0.4,-0.2 -0.6,-0.5 -0.6,-0.9 0,-0.4 0.2,-0.8 0.6,-0.9 L 27.9,6.9 c 0.3,-0.1 0.5,-0.1 0.8,0 l 14.5,6.4 c 0.4,0.2 0.6,0.5 0.6,0.9 0,0.4 -0.2,0.8 -0.6,0.9 l -14.5,6.4 c -0.1,0 -0.2,0.1 -0.4,0.1 z m -12,-7.5 12.1,5.3 12.1,-5.3 -12.2,-5.3 z"
           id="path1"
           style="fill:#f9f9f9" />
        <rect
           x="27.299999"
           y="20.6"
           fill="#111111"
           width="2"
           height="72.099998"
           id="rect1"
           style="fill:#f9f9f9" />
        <path
           fill="#111111"
           d="m 28.3,93.7 c -0.1,0 -0.3,0 -0.4,-0.1 L 13.4,87.2 C 13,87 12.8,86.7 12.8,86.3 V 14.1 h 2 v 71.5 l 13.5,6 13.5,-6 V 14.1 h 2 v 72.1 c 0,0.4 -0.2,0.8 -0.6,0.9 l -14.5,6.4 c -0.1,0.1 -0.2,0.2 -0.4,0.2 z"
           id="path2"
           style="fill:#f9f9f9" />
        <path
           fill="#111111"
           d="m 50.8,35.7 c -0.1,0 -0.3,0 -0.4,-0.1 l -7.9,-3.5 0.8,-1.8 7.5,3.3 L 62.9,28.3 50.8,23 43.3,26.3 42.5,24.5 50.4,21 c 0.3,-0.1 0.5,-0.1 0.8,0 l 14.5,6.4 c 0.4,0.2 0.6,0.5 0.6,0.9 0,0.4 -0.2,0.8 -0.6,0.9 l -14.5,6.4 c -0.2,0.1 -0.3,0.1 -0.4,0.1 z"
           id="path3"
           style="fill:#f9f9f9" />
        <rect
           x="49.799999"
           y="34.700001"
           fill="#111111"
           width="2"
           height="48.099998"
           id="rect3"
           style="fill:#f9f9f9" />
        <path
           fill="#111111"
           d="m 50.8,83.8 c -0.1,0 -0.3,0 -0.4,-0.1 l -7.9,-3.5 0.8,-1.8 7.5,3.3 13.5,-6 V 28.3 h 2 v 48.1 c 0,0.4 -0.2,0.8 -0.6,0.9 l -14.5,6.4 c -0.2,0.1 -0.3,0.1 -0.4,0.1 z"
           id="path4"
           style="fill:#f9f9f9" />
        <path
           fill="#111111"
           d="m 72.8,50.1 c -0.1,0 -0.3,0 -0.4,-0.1 l -7.5,-3.3 0.8,-1.8 7.1,3.1 12.1,-5.3 -12.1,-5.3 -7.1,3.1 -0.8,-1.8 7.5,-3.3 c 0.3,-0.1 0.5,-0.1 0.8,0 l 14.5,6.4 c 0.4,0.2 0.6,0.5 0.6,0.9 0,0.4 -0.2,0.8 -0.6,0.9 L 73.2,50 c -0.1,0 -0.2,0.1 -0.4,0.1 z"
           id="path5"
           style="fill:#f9f9f9" />
        <rect
           x="71.800003"
           y="49.099998"
           fill="#111111"
           width="2"
           height="23.9"
           id="rect5"
           style="fill:#f9f9f9" />
        <path
           fill="#111111"
           d="m 72.8,73.9 c -0.1,0 -0.3,0 -0.4,-0.1 l -7.6,-3.3 0.8,-1.8 7.2,3.2 13.5,-6 V 42.7 h 2 v 23.9 c 0,0.4 -0.2,0.8 -0.6,0.9 l -14.5,6.4 c -0.1,0 -0.2,0 -0.4,0 z"
           id="path6"
           style="fill:#f9f9f9" />
      </g>
    </g>
    <g
       id="SvgjsG3002"
       featurekey="nameFeature-0"
       transform="matrix(2.3486782,0,0,2.3486782,-2.3486782,146.95397)"
       fill="#111111"
       style="fill:#f9f9f9">
      <path
         d="M 9.92,10.4 C 9.9,12.52 8.2,13.8 6.56,13.8 H 4.02 V 20 H 1 V 3.22 h 4.46 c 0.38,0 0.76,0.02 1.12,0.02 1.68,0 3.34,1.46 3.34,3.64 z m -4,1.14 c 0.48,0 0.88,-0.24 0.96,-1 C 6.88,9.28 6.9,7.98 6.9,6.86 6.9,5.9 6.38,5.72 5.92,5.66 h -1.9 v 5.9 h 1.66 c 0.02,0 0.24,-0.02 0.24,-0.02 z m 8.56,2.04 V 20 H 11.46 V 3.22 h 4.78 c 0.26,0 0.52,0 0.8,0.02 1.92,0 3.38,1.72 3.4,3.6 v 0.84 c 0,0.82 -0.02,1.66 -0.02,2.48 -0.02,1.32 -0.72,2.46 -1.68,3.06 l 2.2,6.78 h -3.08 l -2.02,-6.42 z m 1.68,-7.92 h -1.68 v 5.68 h 1.88 c 0.6,0 0.86,-0.48 0.92,-1 0.04,-0.6 0.08,-1.22 0.08,-1.82 C 17.36,7.9 17.32,7.3 17.28,6.7 17.2,6 16.84,5.66 16.16,5.66 Z m 14.7,1.06 v 9.78 c 0,2.2 -1.64,3.7 -3.38,3.7 h -2.14 c -1.74,0 -3.38,-1.48 -3.38,-3.7 V 6.72 c 0,-2.2 1.66,-3.7 3.4,-3.7 h 2.12 c 1.72,0.02 3.38,1.52 3.38,3.7 z m -5.9,1.34 v 7.5 c 0,0.38 0.02,0.66 0.06,1.14 0.02,0.82 0.56,1.02 1.26,1.02 0.78,0 1.42,-0.02 1.54,-1.02 0.02,-0.5 0.04,-1 0.04,-1.5 V 7.3 c 0,-0.24 -0.02,-0.5 -0.02,-0.74 -0.02,-0.62 -0.46,-1 -0.96,-1.06 0,-0.02 -0.4,-0.02 -0.42,-0.02 -1.46,0 -1.48,0.66 -1.48,1.82 -0.02,0.24 -0.02,0.5 -0.02,0.76 z m 11.52,9.66 c 0.22,0.02 0.42,0.02 0.64,0.02 0.1,0 0.26,0 0.38,-0.04 0.5,-0.08 0.84,-0.42 0.84,-1.06 V 13.26 H 36.8 v -2.32 h 4.64 v 5.56 c 0,2 -1.42,3.44 -2.98,3.68 -0.24,0.04 -0.48,0.04 -0.72,0.04 -0.2,0 -0.38,-0.02 -0.56,-0.02 H 35.9 c -1.74,0 -3.4,-1.5 -3.4,-3.7 V 6.72 c 0,-2.18 1.68,-3.7 3.4,-3.7 h 2.12 c 1.98,0 3.42,1.8 3.42,3.72 V 9.1 h -3.1 c 0,-0.38 0,-0.78 -0.02,-1.16 0,-0.14 0,-0.26 -0.04,-0.4 -0.02,-0.34 -0.06,-0.68 -0.1,-1 -0.04,-0.78 -0.46,-1.06 -1.16,-1.06 -0.18,0 -0.36,0.02 -0.54,0.02 -0.58,0.1 -0.9,0.54 -0.9,1.12 v 9.6 c 0,0.6 0.14,1.5 0.9,1.5 z m 9.8,-4.14 V 20 H 43.26 V 3.22 h 4.78 c 0.26,0 0.52,0 0.8,0.02 1.92,0 3.38,1.72 3.4,3.6 v 0.84 c 0,0.82 -0.02,1.66 -0.02,2.48 -0.02,1.32 -0.72,2.46 -1.68,3.06 l 2.2,6.78 h -3.08 l -2.02,-6.42 z m 1.68,-7.92 h -1.68 v 5.68 h 1.88 c 0.6,0 0.86,-0.48 0.92,-1 0.04,-0.6 0.08,-1.22 0.08,-1.82 C 49.16,7.9 49.12,7.3 49.08,6.7 49,6 48.64,5.66 47.96,5.66 Z m 12.2,6.7 h -3.2 v 5.36 H 61.8 V 20 H 53.94 V 3.22 H 61.8 V 5.5 h -4.84 v 4.62 h 3.2 z M 63.1,6.72 c 0,-2.18 1.64,-3.66 3.36,-3.7 0.6,0 1.18,-0.02 1.78,-0.02 1.76,0 3.28,1.54 3.28,3.74 V 8.96 H 68.64 V 7.62 c 0,-1.1 -0.16,-2.12 -1.28,-2.12 -0.02,0 -0.18,0.02 -0.2,0.02 -0.54,0.04 -1.04,0.5 -1.04,1.32 0,4 5.88,4.26 5.88,9.66 0,2.2 -1.64,3.72 -3.38,3.72 -0.72,0 -1.44,0 -2.16,-0.02 -1.74,-0.02 -3.38,-1.5 -3.38,-3.7 v -2.24 h 3.02 v 1.06 c -0.02,1.2 0.18,2.4 1.46,2.4 0.86,0 1.42,-0.44 1.42,-1.48 0,-3.9 -5.88,-4.1 -5.88,-9.52 z m 10.1,0 c 0,-2.18 1.64,-3.66 3.36,-3.7 0.6,0 1.18,-0.02 1.78,-0.02 1.76,0 3.28,1.54 3.28,3.74 V 8.96 H 78.74 V 7.62 c 0,-1.1 -0.16,-2.12 -1.28,-2.12 -0.02,0 -0.18,0.02 -0.2,0.02 -0.54,0.04 -1.04,0.5 -1.04,1.32 0,4 5.88,4.26 5.88,9.66 0,2.2 -1.64,3.72 -3.38,3.72 -0.72,0 -1.44,0 -2.16,-0.02 -1.74,-0.02 -3.38,-1.5 -3.38,-3.7 v -2.24 h 3.02 v 1.06 c -0.02,1.2 0.18,2.4 1.46,2.4 0.86,0 1.42,-0.44 1.42,-1.48 0,-3.9 -5.88,-4.1 -5.88,-9.52 z M 90.1,5.5 H 86.66 V 3.22 h 9.92 V 5.5 H 93.14 V 20 H 90.1 Z m 10.86,8.08 V 20 H 97.94 V 3.22 h 4.78 c 0.26,0 0.52,0 0.8,0.02 1.92,0 3.38,1.72 3.4,3.6 v 0.84 c 0,0.82 -0.02,1.66 -0.02,2.48 -0.02,1.32 -0.72,2.46 -1.68,3.06 l 2.2,6.78 h -3.08 l -2.02,-6.42 z m 1.68,-7.92 h -1.68 v 5.68 h 1.88 c 0.6,0 0.86,-0.48 0.92,-1 0.04,-0.6 0.08,-1.22 0.08,-1.82 C 103.84,7.9 103.8,7.3 103.76,6.7 103.68,6 103.32,5.66 102.64,5.66 Z M 115.18,3.22 119.22,20 h -3.06 l -0.78,-3.58 h -3.3 l -0.8,3.58 h -3.04 l 4.02,-16.78 z m -1.46,5.72 -1.14,5.22 h 2.3 z m 6.74,7.56 V 6.72 c 0.02,-2.18 1.68,-3.68 3.4,-3.7 H 126 c 1.72,0 3.38,1.54 3.38,3.7 V 9.2 h -3.06 V 7.54 C 126.3,5.58 126.06,5.5 124.48,5.5 c -0.5,0 -1.02,0.18 -1.02,1.08 v 10.06 c 0,0.94 0.74,1.1 1.36,1.1 1.42,0 1.48,-1.48 1.5,-2.56 v -0.82 h 3.06 v 2.16 c 0,1.88 -1.42,3.68 -3.38,3.68 h -2.14 c -1.72,0 -3.38,-1.48 -3.4,-3.7 z m 16.88,-4.14 h -3.2 v 5.36 h 4.84 V 20 h -7.86 V 3.22 h 7.86 V 5.5 h -4.84 v 4.62 h 3.2 z m 6.22,1.22 V 20 h -3.02 V 3.22 h 4.78 c 0.26,0 0.52,0 0.8,0.02 1.92,0 3.38,1.72 3.4,3.6 v 0.84 c 0,0.82 -0.02,1.66 -0.02,2.48 -0.02,1.32 -0.72,2.46 -1.68,3.06 l 2.2,6.78 h -3.08 l -2.02,-6.42 z m 1.68,-7.92 h -1.68 v 5.68 h 1.88 c 0.6,0 0.86,-0.48 0.92,-1 0.04,-0.6 0.08,-1.22 0.08,-1.82 0,-0.62 -0.04,-1.22 -0.08,-1.82 -0.08,-0.7 -0.44,-1.04 -1.12,-1.04 z"
         id="path7"
         style="fill:#f9f9f9" />
    </g>
    <g
       id="SvgjsG3003"
       featurekey="zdvuGz-0"
       transform="matrix(0.82116067,0,0,0.82116067,34.488658,209.15515)"
       fill="#111111"
       style="fill:#f9f9f9">
      <path
         d="M 10.92,19.66 C 11,19.88 10.88,20 10.68,20 H 9.56 C 9.36,20 9.26,19.88 9.18,19.66 L 8.42,17.06 H 3.14 l -0.76,2.6 C 2.32,19.88 2.2,20 2,20 H 0.88 C 0.68,20 0.58,19.88 0.64,19.66 L 4.68,6.32 C 4.74,6.12 4.88,6 5.06,6 H 6.48 C 6.66,6 6.8,6.12 6.86,6.32 Z M 3.58,15.54 h 4.4 L 5.78,8.12 Z M 28.8265,6 c 0.2,0 0.3,0.1 0.3,0.3 v 13.4 c 0,0.2 -0.1,0.3 -0.3,0.3 h -1.76 c -0.16,0 -0.28,-0.06 -0.36,-0.22 l -5.2,-11.24 V 19.7 c 0,0.2 -0.1,0.3 -0.3,0.3 h -1.14 c -0.2,0 -0.3,-0.1 -0.3,-0.3 V 6.3 c 0,-0.2 0.1,-0.3 0.3,-0.3 h 1.76 c 0.16,0 0.28,0.06 0.36,0.22 l 5.2,11.22 V 6.3 c 0,-0.2 0.1,-0.3 0.3,-0.3 z M 48.253,19.66 c 0.08,0.22 -0.04,0.34 -0.24,0.34 h -1.12 c -0.2,0 -0.3,-0.12 -0.38,-0.34 l -0.76,-2.6 h -5.28 l -0.76,2.6 c -0.06,0.22 -0.18,0.34 -0.38,0.34 h -1.12 c -0.2,0 -0.3,-0.12 -0.24,-0.34 L 42.013,6.32 C 42.073,6.12 42.213,6 42.393,6 h 1.42 c 0.18,0 0.32,0.12 0.38,0.32 z m -7.34,-4.12 h 4.4 l -2.2,-7.42 z m 23.0265,2.88 c 0.2,0 0.3,0.1 0.3,0.3 v 0.98 c 0,0.2 -0.1,0.3 -0.3,0.3 h -6.94 c -0.2,0 -0.3,-0.1 -0.3,-0.3 V 6.3 c 0,-0.2 0.1,-0.3 0.3,-0.3 h 1.14 c 0.2,0 0.3,0.1 0.3,0.3 V 18.42 Z M 80.806,6 c 0.2,0 0.32,0.1 0.2,0.3 l -4.18,8.08 v 5.32 c 0,0.2 -0.1,0.3 -0.3,0.3 h -1.14 c -0.2,0 -0.3,-0.1 -0.3,-0.3 V 14.38 L 70.906,6.3 c -0.12,-0.2 0,-0.3 0.2,-0.3 h 1.26 c 0.2,0 0.3,0.1 0.4,0.3 l 3.18,6.3 3.18,-6.3 c 0.1,-0.2 0.2,-0.3 0.4,-0.3 z m 16.7465,0 c 0.2,0 0.3,0.1 0.3,0.3 v 0.98 c 0,0.2 -0.1,0.3 -0.3,0.3 h -3.16 V 19.7 c 0,0.2 -0.1,0.3 -0.3,0.3 h -1.14 c -0.2,0 -0.3,-0.1 -0.3,-0.3 V 7.58 h -3.18 c -0.2,0 -0.3,-0.1 -0.3,-0.3 V 6.3 c 0,-0.2 0.1,-0.3 0.3,-0.3 h 4.62 z m 9.3065,0.3 c 0,-0.2 0.1,-0.3 0.3,-0.3 h 1.16 c 0.2,0 0.3,0.1 0.3,0.3 v 13.4 c 0,0.2 -0.1,0.3 -0.3,0.3 h -1.16 c -0.2,0 -0.3,-0.1 -0.3,-0.3 z m 20.3065,9.44 c 0.22,0 0.34,0.12 0.34,0.34 -0.12,2.64 -1.48,4.02 -4.02,4.02 h -1.54 c -2.64,0 -4.02,-1.5 -4.02,-4.16 v -5.88 c 0,-2.66 1.38,-4.16 4.02,-4.16 h 1.54 c 2.54,0 3.9,1.38 4.02,4.02 0,0.22 -0.12,0.34 -0.34,0.34 h -1.04 c -0.22,0 -0.36,-0.12 -0.36,-0.34 -0.08,-1.78 -0.76,-2.44 -2.28,-2.44 h -1.54 c -1.62,0 -2.28,0.74 -2.28,2.58 v 5.88 c 0,1.84 0.66,2.58 2.28,2.58 h 1.54 c 1.52,0 2.2,-0.66 2.28,-2.44 0,-0.22 0.14,-0.34 0.36,-0.34 z m 14.3265,-3.8 c 2.2,0.48 4.44,1.2 4.44,4.06 0,2.66 -1.38,4.1 -4.02,4.1 h -1.48 c -2.52,0 -3.9,-1.36 -4.02,-3.82 0,-0.22 0.12,-0.34 0.34,-0.34 h 1.04 c 0.22,0 0.36,0.12 0.36,0.34 0.08,1.58 0.76,2.24 2.28,2.24 h 1.48 c 1.62,0 2.28,-0.68 2.28,-2.52 0,-1.84 -1.24,-2.1 -2.74,-2.46 l -0.88,-0.2 c -2.36,-0.52 -4,-1.26 -4,-3.8 0,-2.48 1.42,-3.64 4.04,-3.64 h 0.98 c 2.48,0 3.8,1.36 3.92,3.76 0.02,0.22 -0.12,0.34 -0.34,0.34 h -1.04 c -0.2,0 -0.34,-0.12 -0.36,-0.34 -0.08,-1.54 -0.72,-2.18 -2.18,-2.18 h -0.98 c -1.6,0 -2.3,0.38 -2.3,2.06 0,1.62 0.72,1.84 2.3,2.2 z m 28.093,-4.36 v 4.76 h 4.56 c 0.2,0 0.3,0.1 0.3,0.3 v 0.98 c 0,0.2 -0.1,0.3 -0.3,0.3 h -4.56 v 5.78 c 0,0.2 -0.1,0.3 -0.3,0.3 h -1.14 c -0.2,0 -0.3,-0.1 -0.3,-0.3 V 6.3 c 0,-0.2 0.1,-0.3 0.3,-0.3 h 7.46 c 0.2,0 0.3,0.1 0.3,0.3 v 0.98 c 0,0.2 -0.1,0.3 -0.3,0.3 z M 190.0115,5.9 c 2.64,0 4.02,1.5 4.02,4.16 v 5.88 c 0,2.66 -1.38,4.16 -4.02,4.16 h -1.7 c -2.64,0 -4.02,-1.5 -4.02,-4.16 v -5.88 c 0,-2.66 1.38,-4.16 4.02,-4.16 z m 2.28,10.04 v -5.88 c 0,-1.84 -0.68,-2.58 -2.28,-2.58 h -1.7 c -1.62,0 -2.28,0.74 -2.28,2.58 v 5.88 c 0,1.84 0.66,2.58 2.28,2.58 h 1.7 c 1.6,0 2.28,-0.74 2.28,-2.58 z m 20.5265,3.66 c 0.1,0.24 -0.02,0.4 -0.28,0.4 h -1.12 c -0.18,0 -0.34,-0.08 -0.4,-0.26 l -2.02,-4.56 c -0.16,0.02 -0.32,0.02 -0.5,0.02 h -3.42 v 4.5 c 0,0.2 -0.1,0.3 -0.3,0.3 h -1.14 c -0.2,0 -0.3,-0.1 -0.3,-0.3 V 6.3 c 0,-0.2 0.1,-0.3 0.3,-0.3 h 1.14 3.72 c 2.6,0 3.96,1.4 3.96,4 v 1.2 c 0,1.74 -0.62,2.96 -1.82,3.56 z m -7.74,-5.98 h 3.42 c 1.56,0 2.22,-0.64 2.22,-2.42 V 10 c 0,-1.78 -0.66,-2.42 -2.22,-2.42 h -3.42 z m 38.733,-1.08 c 0.22,0 0.34,0.14 0.34,0.34 v 3.06 c 0,2.66 -1.38,4.16 -4.02,4.16 h -1.54 c -2.64,0 -4.02,-1.5 -4.02,-4.16 v -5.88 c 0,-2.66 1.38,-4.16 4.02,-4.16 h 1.54 c 2.52,0 3.9,1.36 4.02,3.88 0,0.22 -0.12,0.34 -0.34,0.34 h -1.04 c -0.22,0 -0.36,-0.12 -0.36,-0.34 -0.08,-1.64 -0.78,-2.3 -2.28,-2.3 h -1.54 c -1.62,0 -2.28,0.74 -2.28,2.58 v 5.88 c 0,1.84 0.66,2.58 2.28,2.58 h 1.54 c 1.62,0 2.28,-0.74 2.28,-2.58 v -1.9 h -1.84 c -0.22,0 -0.34,-0.14 -0.34,-0.34 v -0.82 c 0,-0.2 0.12,-0.34 0.34,-0.34 z m 19.1265,7.06 c 0.1,0.24 -0.02,0.4 -0.28,0.4 h -1.12 c -0.18,0 -0.34,-0.08 -0.4,-0.26 l -2.02,-4.56 c -0.16,0.02 -0.32,0.02 -0.5,0.02 h -3.42 v 4.5 c 0,0.2 -0.1,0.3 -0.3,0.3 h -1.14 c -0.2,0 -0.3,-0.1 -0.3,-0.3 V 6.3 c 0,-0.2 0.1,-0.3 0.3,-0.3 h 1.14 3.72 c 2.6,0 3.96,1.4 3.96,4 v 1.2 c 0,1.74 -0.62,2.96 -1.82,3.56 z m -7.74,-5.98 h 3.42 c 1.56,0 2.22,-0.64 2.22,-2.42 V 10 c 0,-1.78 -0.66,-2.42 -2.22,-2.42 h -3.42 z M 277.504,5.9 c 2.64,0 4.02,1.5 4.02,4.16 v 5.88 c 0,2.66 -1.38,4.16 -4.02,4.16 h -1.7 c -2.64,0 -4.02,-1.5 -4.02,-4.16 v -5.88 c 0,-2.66 1.38,-4.16 4.02,-4.16 z m 2.28,10.04 v -5.88 c 0,-1.84 -0.68,-2.58 -2.28,-2.58 h -1.7 c -1.62,0 -2.28,0.74 -2.28,2.58 v 5.88 c 0,1.84 0.66,2.58 2.28,2.58 h 1.7 c 1.6,0 2.28,-0.74 2.28,-2.58 z M 306.2505,6 c 0.2,0 0.3,0.1 0.26,0.3 l -3.18,13.4 c -0.06,0.22 -0.2,0.3 -0.38,0.3 h -1 c -0.18,0 -0.32,-0.08 -0.38,-0.3 l -3.4,-10.86 -3.38,10.86 c -0.08,0.22 -0.2,0.3 -0.38,0.3 h -1 c -0.18,0 -0.34,-0.08 -0.4,-0.3 l -3.16,-13.4 c -0.04,-0.2 0.04,-0.3 0.24,-0.3 h 1.24 c 0.2,0 0.32,0.1 0.36,0.3 l 2.34,10.64 3.24,-10.64 c 0.06,-0.2 0.18,-0.3 0.38,-0.3 h 1.04 c 0.2,0 0.32,0.1 0.38,0.3 l 3.26,10.64 2.34,-10.64 c 0.02,-0.2 0.14,-0.3 0.34,-0.3 z m 17.0665,0 c 0.2,0 0.3,0.1 0.3,0.3 v 0.98 c 0,0.2 -0.1,0.3 -0.3,0.3 h -3.16 V 19.7 c 0,0.2 -0.1,0.3 -0.3,0.3 h -1.14 c -0.2,0 -0.3,-0.1 -0.3,-0.3 V 7.58 h -3.18 c -0.2,0 -0.3,-0.1 -0.3,-0.3 V 6.3 c 0,-0.2 0.1,-0.3 0.3,-0.3 h 4.62 z m 17.9865,0 c 0.2,0 0.3,0.1 0.3,0.3 v 13.4 c 0,0.2 -0.1,0.3 -0.3,0.3 h -1.14 c -0.2,0 -0.3,-0.1 -0.3,-0.3 v -5.78 h -5.5 v 5.78 c 0,0.2 -0.1,0.3 -0.3,0.3 h -1.14 c -0.2,0 -0.3,-0.1 -0.3,-0.3 V 6.3 c 0,-0.2 0.1,-0.3 0.3,-0.3 h 1.14 c 0.2,0 0.3,0.1 0.3,0.3 v 6.04 h 5.5 V 6.3 c 0,-0.2 0.1,-0.3 0.3,-0.3 z"
         id="path8"
         style="fill:#f9f9f9" />
    </g>
  </g>
</svg>
