<svg xmlns="http://www.w3.org/2000/svg" viewBox="0 0 404.0599348154715 86.56559902512893" preserveAspectRatio="xMidYMid meet" class="css-8aabad" id="dbeggdcd">
  <defs id="SvgjsDefs2859"/>
  <g id="SvgjsG2860" featurekey="zdvuGz-0" transform="matrix(1.0961688129176377,0,0,1.0961688129176377,14.317408127476652,64.5326054673292)" fill="#111">
    <path d="M10.92 19.66 c0.08 0.22 -0.04 0.34 -0.24 0.34 l-1.12 0 c-0.2 0 -0.3 -0.12 -0.38 -0.34 l-0.76 -2.6 l-5.28 0 l-0.76 2.6 c-0.06 0.22 -0.18 0.34 -0.38 0.34 l-1.12 0 c-0.2 0 -0.3 -0.12 -0.24 -0.34 l4.04 -13.34 c0.06 -0.2 0.2 -0.32 0.38 -0.32 l1.42 0 c0.18 0 0.32 0.12 0.38 0.32 z M3.58 15.54 l4.4 0 l-2.2 -7.42 z M28.8265 6 c0.2 0 0.3 0.1 0.3 0.3 l0 13.4 c0 0.2 -0.1 0.3 -0.3 0.3 l-1.76 0 c-0.16 0 -0.28 -0.06 -0.36 -0.22 l-5.2 -11.24 l0 11.16 c0 0.2 -0.1 0.3 -0.3 0.3 l-1.14 0 c-0.2 0 -0.3 -0.1 -0.3 -0.3 l0 -13.4 c0 -0.2 0.1 -0.3 0.3 -0.3 l1.76 0 c0.16 0 0.28 0.06 0.36 0.22 l5.2 11.22 l0 -11.14 c0 -0.2 0.1 -0.3 0.3 -0.3 l1.14 0 z M48.253 19.66 c0.08 0.22 -0.04 0.34 -0.24 0.34 l-1.12 0 c-0.2 0 -0.3 -0.12 -0.38 -0.34 l-0.76 -2.6 l-5.28 0 l-0.76 2.6 c-0.06 0.22 -0.18 0.34 -0.38 0.34 l-1.12 0 c-0.2 0 -0.3 -0.12 -0.24 -0.34 l4.04 -13.34 c0.06 -0.2 0.2 -0.32 0.38 -0.32 l1.42 0 c0.18 0 0.32 0.12 0.38 0.32 z M40.913 15.54 l4.4 0 l-2.2 -7.42 z M63.939499999999995 18.42 c0.2 0 0.3 0.1 0.3 0.3 l0 0.98 c0 0.2 -0.1 0.3 -0.3 0.3 l-6.94 0 c-0.2 0 -0.3 -0.1 -0.3 -0.3 l0 -13.4 c0 -0.2 0.1 -0.3 0.3 -0.3 l1.14 0 c0.2 0 0.3 0.1 0.3 0.3 l0 12.12 l5.5 0 z M80.806 6 c0.2 0 0.32 0.1 0.2 0.3 l-4.18 8.08 l0 5.32 c0 0.2 -0.1 0.3 -0.3 0.3 l-1.14 0 c-0.2 0 -0.3 -0.1 -0.3 -0.3 l0 -5.32 l-4.18 -8.08 c-0.12 -0.2 0 -0.3 0.2 -0.3 l1.26 0 c0.2 0 0.3 0.1 0.4 0.3 l3.18 6.3 l3.18 -6.3 c0.1 -0.2 0.2 -0.3 0.4 -0.3 l1.28 0 z M97.55249999999998 6 c0.2 0 0.3 0.1 0.3 0.3 l0 0.98 c0 0.2 -0.1 0.3 -0.3 0.3 l-3.16 0 l0 12.12 c0 0.2 -0.1 0.3 -0.3 0.3 l-1.14 0 c-0.2 0 -0.3 -0.1 -0.3 -0.3 l0 -12.12 l-3.18 0 c-0.2 0 -0.3 -0.1 -0.3 -0.3 l0 -0.98 c0 -0.2 0.1 -0.3 0.3 -0.3 l4.62 0 l3.46 0 z M106.85899999999998 6.300000000000001 c0 -0.2 0.1 -0.3 0.3 -0.3 l1.16 0 c0.2 0 0.3 0.1 0.3 0.3 l0 13.4 c0 0.2 -0.1 0.3 -0.3 0.3 l-1.16 0 c-0.2 0 -0.3 -0.1 -0.3 -0.3 l0 -13.4 z M127.16549999999998 15.74 c0.22 0 0.34 0.12 0.34 0.34 c-0.12 2.64 -1.48 4.02 -4.02 4.02 l-1.54 0 c-2.64 0 -4.02 -1.5 -4.02 -4.16 l0 -5.88 c0 -2.66 1.38 -4.16 4.02 -4.16 l1.54 0 c2.54 0 3.9 1.38 4.02 4.02 c0 0.22 -0.12 0.34 -0.34 0.34 l-1.04 0 c-0.22 0 -0.36 -0.12 -0.36 -0.34 c-0.08 -1.78 -0.76 -2.44 -2.28 -2.44 l-1.54 0 c-1.62 0 -2.28 0.74 -2.28 2.58 l0 5.88 c0 1.84 0.66 2.58 2.28 2.58 l1.54 0 c1.52 0 2.2 -0.66 2.28 -2.44 c0 -0.22 0.14 -0.34 0.36 -0.34 l1.04 0 z M141.49199999999996 11.94 c2.2 0.48 4.44 1.2 4.44 4.06 c0 2.66 -1.38 4.1 -4.02 4.1 l-1.48 0 c-2.52 0 -3.9 -1.36 -4.02 -3.82 c0 -0.22 0.12 -0.34 0.34 -0.34 l1.04 0 c0.22 0 0.36 0.12 0.36 0.34 c0.08 1.58 0.76 2.24 2.28 2.24 l1.48 0 c1.62 0 2.28 -0.68 2.28 -2.52 s-1.24 -2.1 -2.74 -2.46 l-0.88 -0.2 c-2.36 -0.52 -4 -1.26 -4 -3.8 c0 -2.48 1.42 -3.64 4.04 -3.64 l0.98 0 c2.48 0 3.8 1.36 3.92 3.76 c0.02 0.22 -0.12 0.34 -0.34 0.34 l-1.04 0 c-0.2 0 -0.34 -0.12 -0.36 -0.34 c-0.08 -1.54 -0.72 -2.18 -2.18 -2.18 l-0.98 0 c-1.6 0 -2.3 0.38 -2.3 2.06 c0 1.62 0.72 1.84 2.3 2.2 z M169.58499999999995 7.58 l0 4.76 l4.56 0 c0.2 0 0.3 0.1 0.3 0.3 l0 0.98 c0 0.2 -0.1 0.3 -0.3 0.3 l-4.56 0 l0 5.78 c0 0.2 -0.1 0.3 -0.3 0.3 l-1.14 0 c-0.2 0 -0.3 -0.1 -0.3 -0.3 l0 -13.4 c0 -0.2 0.1 -0.3 0.3 -0.3 l7.46 0 c0.2 0 0.3 0.1 0.3 0.3 l0 0.98 c0 0.2 -0.1 0.3 -0.3 0.3 l-6.02 0 z M190.01149999999996 5.9 c2.64 0 4.02 1.5 4.02 4.16 l0 5.88 c0 2.66 -1.38 4.16 -4.02 4.16 l-1.7 0 c-2.64 0 -4.02 -1.5 -4.02 -4.16 l0 -5.88 c0 -2.66 1.38 -4.16 4.02 -4.16 l1.7 0 z M192.29149999999996 15.940000000000001 l0 -5.88 c0 -1.84 -0.68 -2.58 -2.28 -2.58 l-1.7 0 c-1.62 0 -2.28 0.74 -2.28 2.58 l0 5.88 c0 1.84 0.66 2.58 2.28 2.58 l1.7 0 c1.6 0 2.28 -0.74 2.28 -2.58 z M212.81799999999996 19.6 c0.1 0.24 -0.02 0.4 -0.28 0.4 l-1.12 0 c-0.18 0 -0.34 -0.08 -0.4 -0.26 l-2.02 -4.56 c-0.16 0.02 -0.32 0.02 -0.5 0.02 l-3.42 0 l0 4.5 c0 0.2 -0.1 0.3 -0.3 0.3 l-1.14 0 c-0.2 0 -0.3 -0.1 -0.3 -0.3 l0 -13.4 c0 -0.2 0.1 -0.3 0.3 -0.3 l1.14 0 l3.72 0 c2.6 0 3.96 1.4 3.96 4 l0 1.2 c0 1.74 -0.62 2.96 -1.82 3.56 z M205.07799999999995 13.620000000000001 l3.42 0 c1.56 0 2.22 -0.64 2.22 -2.42 l0 -1.2 c0 -1.78 -0.66 -2.42 -2.22 -2.42 l-3.42 0 l0 6.04 z M243.81099999999995 12.54 c0.22 0 0.34 0.14 0.34 0.34 l0 3.06 c0 2.66 -1.38 4.16 -4.02 4.16 l-1.54 0 c-2.64 0 -4.02 -1.5 -4.02 -4.16 l0 -5.88 c0 -2.66 1.38 -4.16 4.02 -4.16 l1.54 0 c2.52 0 3.9 1.36 4.02 3.88 c0 0.22 -0.12 0.34 -0.34 0.34 l-1.04 0 c-0.22 0 -0.36 -0.12 -0.36 -0.34 c-0.08 -1.64 -0.78 -2.3 -2.28 -2.3 l-1.54 0 c-1.62 0 -2.28 0.74 -2.28 2.58 l0 5.88 c0 1.84 0.66 2.58 2.28 2.58 l1.54 0 c1.62 0 2.28 -0.74 2.28 -2.58 l0 -1.9 l-1.84 0 c-0.22 0 -0.34 -0.14 -0.34 -0.34 l0 -0.82 c0 -0.2 0.12 -0.34 0.34 -0.34 l3.24 0 z M262.93749999999994 19.6 c0.1 0.24 -0.02 0.4 -0.28 0.4 l-1.12 0 c-0.18 0 -0.34 -0.08 -0.4 -0.26 l-2.02 -4.56 c-0.16 0.02 -0.32 0.02 -0.5 0.02 l-3.42 0 l0 4.5 c0 0.2 -0.1 0.3 -0.3 0.3 l-1.14 0 c-0.2 0 -0.3 -0.1 -0.3 -0.3 l0 -13.4 c0 -0.2 0.1 -0.3 0.3 -0.3 l1.14 0 l3.72 0 c2.6 0 3.96 1.4 3.96 4 l0 1.2 c0 1.74 -0.62 2.96 -1.82 3.56 z M255.19749999999993 13.620000000000001 l3.42 0 c1.56 0 2.22 -0.64 2.22 -2.42 l0 -1.2 c0 -1.78 -0.66 -2.42 -2.22 -2.42 l-3.42 0 l0 6.04 z M277.50399999999996 5.9 c2.64 0 4.02 1.5 4.02 4.16 l0 5.88 c0 2.66 -1.38 4.16 -4.02 4.16 l-1.7 0 c-2.64 0 -4.02 -1.5 -4.02 -4.16 l0 -5.88 c0 -2.66 1.38 -4.16 4.02 -4.16 l1.7 0 z M279.784 15.940000000000001 l0 -5.88 c0 -1.84 -0.68 -2.58 -2.28 -2.58 l-1.7 0 c-1.62 0 -2.28 0.74 -2.28 2.58 l0 5.88 c0 1.84 0.66 2.58 2.28 2.58 l1.7 0 c1.6 0 2.28 -0.74 2.28 -2.58 z M306.2505 6 c0.2 0 0.3 0.1 0.26 0.3 l-3.18 13.4 c-0.06 0.22 -0.2 0.3 -0.38 0.3 l-1 0 c-0.18 0 -0.32 -0.08 -0.38 -0.3 l-3.4 -10.86 l-3.38 10.86 c-0.08 0.22 -0.2 0.3 -0.38 0.3 l-1 0 c-0.18 0 -0.34 -0.08 -0.4 -0.3 l-3.16 -13.4 c-0.04 -0.2 0.04 -0.3 0.24 -0.3 l1.24 0 c0.2 0 0.32 0.1 0.36 0.3 l2.34 10.64 l3.24 -10.64 c0.06 -0.2 0.18 -0.3 0.38 -0.3 l1.04 0 c0.2 0 0.32 0.1 0.38 0.3 l3.26 10.64 l2.34 -10.64 c0.02 -0.2 0.14 -0.3 0.34 -0.3 l1.24 0 z M323.317 6 c0.2 0 0.3 0.1 0.3 0.3 l0 0.98 c0 0.2 -0.1 0.3 -0.3 0.3 l-3.16 0 l0 12.12 c0 0.2 -0.1 0.3 -0.3 0.3 l-1.14 0 c-0.2 0 -0.3 -0.1 -0.3 -0.3 l0 -12.12 l-3.18 0 c-0.2 0 -0.3 -0.1 -0.3 -0.3 l0 -0.98 c0 -0.2 0.1 -0.3 0.3 -0.3 l4.62 0 l3.46 0 z M341.30350000000004 6 c0.2 0 0.3 0.1 0.3 0.3 l0 13.4 c0 0.2 -0.1 0.3 -0.3 0.3 l-1.14 0 c-0.2 0 -0.3 -0.1 -0.3 -0.3 l0 -5.78 l-5.5 0 l0 5.78 c0 0.2 -0.1 0.3 -0.3 0.3 l-1.14 0 c-0.2 0 -0.3 -0.1 -0.3 -0.3 l0 -13.4 c0 -0.2 0.1 -0.3 0.3 -0.3 l1.14 0 c0.2 0 0.3 0.1 0.3 0.3 l0 6.04 l5.5 0 l0 -6.04 c0 -0.2 0.1 -0.3 0.3 -0.3 l1.14 0 z"/>
  </g>
  <g id="SvgjsG2861" featurekey="nameLeftFeature-0" transform="matrix(2.1694213131295044,0,0,2.1694213131295044,-2.1694213131295044,3.4917365778418334)" fill="#4A6CF7">
    <path d="M9.92 10.4 c-0.02 2.12 -1.72 3.4 -3.36 3.4 l-2.54 0 l0 6.2 l-3.02 0 l0 -16.78 l4.46 0 c0.38 0 0.76 0.02 1.12 0.02 c1.68 0 3.34 1.46 3.34 3.64 l0 3.52 z M5.92 11.54 c0.48 0 0.88 -0.24 0.96 -1 c0 -1.26 0.02 -2.56 0.02 -3.68 c0 -0.96 -0.52 -1.14 -0.98 -1.2 l-1.9 0 l0 5.9 l1.66 0 c0.02 0 0.24 -0.02 0.24 -0.02 z M14.48 13.58 l0 6.42 l-3.02 0 l0 -16.78 l4.78 0 c0.26 0 0.52 0 0.8 0.02 c1.92 0 3.38 1.72 3.4 3.6 l0 0.84 c0 0.82 -0.02 1.66 -0.02 2.48 c-0.02 1.32 -0.72 2.46 -1.68 3.06 l2.2 6.78 l-3.08 0 l-2.02 -6.42 l-1.36 0 z M16.16 5.66 l-1.68 0 l0 5.68 l1.88 0 c0.6 0 0.86 -0.48 0.92 -1 c0.04 -0.6 0.08 -1.22 0.08 -1.82 c0 -0.62 -0.04 -1.22 -0.08 -1.82 c-0.08 -0.7 -0.44 -1.04 -1.12 -1.04 z M30.86 6.720000000000001 l0 9.78 c0 2.2 -1.64 3.7 -3.38 3.7 l-2.14 0 c-1.74 0 -3.38 -1.48 -3.38 -3.7 l0 -9.78 c0 -2.2 1.66 -3.7 3.4 -3.7 l2.12 0 c1.72 0.02 3.38 1.52 3.38 3.7 z M24.96 8.06 l0 7.5 c0 0.38 0.02 0.66 0.06 1.14 c0.02 0.82 0.56 1.02 1.26 1.02 c0.78 0 1.42 -0.02 1.54 -1.02 c0.02 -0.5 0.04 -1 0.04 -1.5 l0 -7.9 c0 -0.24 -0.02 -0.5 -0.02 -0.74 c-0.02 -0.62 -0.46 -1 -0.96 -1.06 c0 -0.02 -0.4 -0.02 -0.42 -0.02 c-1.46 0 -1.48 0.66 -1.48 1.82 c-0.02 0.24 -0.02 0.5 -0.02 0.76 z M36.48 17.72 c0.22 0.02 0.42 0.02 0.64 0.02 c0.1 0 0.26 0 0.38 -0.04 c0.5 -0.08 0.84 -0.42 0.84 -1.06 l0 -3.38 l-1.54 0 l0 -2.32 l4.64 0 l0 5.56 c0 2 -1.42 3.44 -2.98 3.68 c-0.24 0.04 -0.48 0.04 -0.72 0.04 c-0.2 0 -0.38 -0.02 -0.56 -0.02 l-1.28 0 c-1.74 0 -3.4 -1.5 -3.4 -3.7 l0 -9.78 c0 -2.18 1.68 -3.7 3.4 -3.7 l2.12 0 c1.98 0 3.42 1.8 3.42 3.72 l0 2.36 l-3.1 0 c0 -0.38 0 -0.78 -0.02 -1.16 c0 -0.14 0 -0.26 -0.04 -0.4 c-0.02 -0.34 -0.06 -0.68 -0.1 -1 c-0.04 -0.78 -0.46 -1.06 -1.16 -1.06 c-0.18 0 -0.36 0.02 -0.54 0.02 c-0.58 0.1 -0.9 0.54 -0.9 1.12 l0 9.6 c0 0.6 0.14 1.5 0.9 1.5 z M46.28 13.58 l0 6.42 l-3.02 0 l0 -16.78 l4.78 0 c0.26 0 0.52 0 0.8 0.02 c1.92 0 3.38 1.72 3.4 3.6 l0 0.84 c0 0.82 -0.02 1.66 -0.02 2.48 c-0.02 1.32 -0.72 2.46 -1.68 3.06 l2.2 6.78 l-3.08 0 l-2.02 -6.42 l-1.36 0 z M47.96 5.66 l-1.68 0 l0 5.68 l1.88 0 c0.6 0 0.86 -0.48 0.92 -1 c0.04 -0.6 0.08 -1.22 0.08 -1.82 c0 -0.62 -0.04 -1.22 -0.08 -1.82 c-0.08 -0.7 -0.44 -1.04 -1.12 -1.04 z M60.16 12.36 l-3.2 0 l0 5.36 l4.84 0 l0 2.28 l-7.86 0 l0 -16.78 l7.86 0 l0 2.28 l-4.84 0 l0 4.62 l3.2 0 l0 2.24 z M63.1 6.720000000000001 c0 -2.18 1.64 -3.66 3.36 -3.7 c0.6 0 1.18 -0.02 1.78 -0.02 c1.76 0 3.28 1.54 3.28 3.74 l0 2.22 l-2.88 0 l0 -1.34 c0 -1.1 -0.16 -2.12 -1.28 -2.12 c-0.02 0 -0.18 0.02 -0.2 0.02 c-0.54 0.04 -1.04 0.5 -1.04 1.32 c0 4 5.88 4.26 5.88 9.66 c0 2.2 -1.64 3.72 -3.38 3.72 c-0.72 0 -1.44 0 -2.16 -0.02 c-1.74 -0.02 -3.38 -1.5 -3.38 -3.7 l0 -2.24 l3.02 0 l0 1.06 c-0.02 1.2 0.18 2.4 1.46 2.4 c0.86 0 1.42 -0.44 1.42 -1.48 c0 -3.9 -5.88 -4.1 -5.88 -9.52 z M73.19999999999999 6.720000000000001 c0 -2.18 1.64 -3.66 3.36 -3.7 c0.6 0 1.18 -0.02 1.78 -0.02 c1.76 0 3.28 1.54 3.28 3.74 l0 2.22 l-2.88 0 l0 -1.34 c0 -1.1 -0.16 -2.12 -1.28 -2.12 c-0.02 0 -0.18 0.02 -0.2 0.02 c-0.54 0.04 -1.04 0.5 -1.04 1.32 c0 4 5.88 4.26 5.88 9.66 c0 2.2 -1.64 3.72 -3.38 3.72 c-0.72 0 -1.44 0 -2.16 -0.02 c-1.74 -0.02 -3.38 -1.5 -3.38 -3.7 l0 -2.24 l3.02 0 l0 1.06 c-0.02 1.2 0.18 2.4 1.46 2.4 c0.86 0 1.42 -0.44 1.42 -1.48 c0 -3.9 -5.88 -4.1 -5.88 -9.52 z"/>
  </g>
  <g id="SvgjsG2862" featurekey="inlineSymbolFeature-0" transform="matrix(-0.6450205630109987,0,0,0.6450205630109987,252.95531522175955,-4.4022661422314755)" fill="#111">
    <g xmlns="http://www.w3.org/2000/svg">
      <path fill="#111" d="M28.3,21.6c-0.1,0-0.3,0-0.4-0.1l-14.5-6.4c-0.4-0.2-0.6-0.5-0.6-0.9s0.2-0.8,0.6-0.9l14.5-6.4   c0.3-0.1,0.5-0.1,0.8,0l14.5,6.4c0.4,0.2,0.6,0.5,0.6,0.9s-0.2,0.8-0.6,0.9l-14.5,6.4C28.6,21.5,28.5,21.6,28.3,21.6z M16.3,14.1   l12.1,5.3l12.1-5.3L28.3,8.8L16.3,14.1z"/>
      <rect x="27.3" y="20.6" fill="#111" width="2" height="72.1"/>
      <path fill="#111" d="M28.3,93.7c-0.1,0-0.3,0-0.4-0.1l-14.5-6.4c-0.4-0.2-0.6-0.5-0.6-0.9V14.1h2v71.5l13.5,6l13.5-6V14.1h2   v72.1c0,0.4-0.2,0.8-0.6,0.9l-14.5,6.4C28.6,93.6,28.5,93.7,28.3,93.7z"/>
      <path fill="#111" d="M50.8,35.7c-0.1,0-0.3,0-0.4-0.1l-7.9-3.5l0.8-1.8l7.5,3.3l12.1-5.3L50.8,23l-7.5,3.3l-0.8-1.8l7.9-3.5   c0.3-0.1,0.5-0.1,0.8,0l14.5,6.4c0.4,0.2,0.6,0.5,0.6,0.9s-0.2,0.8-0.6,0.9l-14.5,6.4C51,35.7,50.9,35.7,50.8,35.7z"/>
      <rect x="49.8" y="34.7" fill="#111" width="2" height="48.1"/>
      <path fill="#111" d="M50.8,83.8c-0.1,0-0.3,0-0.4-0.1l-7.9-3.5l0.8-1.8l7.5,3.3l13.5-6V28.3h2v48.1c0,0.4-0.2,0.8-0.6,0.9   l-14.5,6.4C51,83.8,50.9,83.8,50.8,83.8z"/>
      <path fill="#111" d="M72.8,50.1c-0.1,0-0.3,0-0.4-0.1l-7.5-3.3l0.8-1.8l7.1,3.1l12.1-5.3l-12.1-5.3l-7.1,3.1l-0.8-1.8l7.5-3.3   c0.3-0.1,0.5-0.1,0.8,0l14.5,6.4c0.4,0.2,0.6,0.5,0.6,0.9s-0.2,0.8-0.6,0.9L73.2,50C73.1,50,73,50.1,72.8,50.1z"/>
      <rect x="71.8" y="49.1" fill="#111" width="2" height="23.9"/>
      <path fill="#111" d="M72.8,73.9c-0.1,0-0.3,0-0.4-0.1l-7.6-3.3l0.8-1.8l7.2,3.2l13.5-6V42.7h2v23.9c0,0.4-0.2,0.8-0.6,0.9   l-14.5,6.4C73.1,73.9,73,73.9,72.8,73.9z"/>
    </g>
  </g>
  <g id="SvgjsG2863" featurekey="nameRightFeature-0" transform="matrix(2.169421553422358,0,0,2.169421553422358,256.7128108452119,3.4917368914241385)" fill="#111">
    <path d="M13.98 5.880000000000001 l-3.3 0 l0 14.12 l-3.56 0 l0 -14.12 l-3.3 0 l0 -2.64 l10.16 0 l0 2.64 z M10.28 19.6 l0 -14.12 l3.3 0 l0 -1.84 l-9.36 0 l0 1.84 l3.3 0 l0 14.12 l2.76 0 z M18.7 13.719999999999999 l0 6.28 l-3.56 0 l0 -16.76 l4.8 0 c0.28 0 0.56 -0.02 0.82 -0.02 c0.3 0 0.6 0.04 0.88 0.12 c1.4 0.4 2.68 1.78 2.64 3.52 l0 0.74 c0 0.86 -0.02 1.72 0 2.58 c0.04 1.32 -0.68 2.5 -1.56 3.14 l2.16 6.68 l-3.64 0 l-1.92 -6.26 c-0.22 -0.02 -0.42 -0.02 -0.62 -0.02 z M18.3 13.32 l1.3 0.02 l1.94 6.26 l2.78 0 l-2.06 -6.42 l0.22 -0.18 c0.86 -0.62 1.4 -1.68 1.4 -2.74 l0 -3.4 c0 -1.72 -1.38 -3.24 -3.12 -3.24 l-5.22 0.02 l0 15.96 l2.76 0 l0 -6.28 z M18.3 5.66 l1.68 0 c0.84 0 1.06 0.86 1.06 1.3 l0 3.3 c0 0.6 -0.26 1.28 -0.96 1.28 l-1.78 -0.02 l0 -5.86 z M18.7 6.0600000000000005 l0 5.06 c0.48 0 0.92 0.02 1.38 0.02 c0.44 0 0.56 -0.52 0.56 -0.88 l0 -3.3 c0.02 -0.48 -0.28 -0.92 -0.66 -0.9 l-1.28 0 z M29.480000000000004 3.2399999999999984 l3.44 0 l4 16.76 l-3.58 0 l-0.72 -3.36 l-2.82 0 l-0.72 3.36 l-3.58 0 z M29.460000000000004 16.240000000000002 l3.5 0 l0.7 3.36 l2.76 0 l-3.82 -15.96 l-2.8 0 l-3.8 15.96 l2.76 0 z M31.200000000000003 7.92 l1.34 6.5 l-2.66 0 z M32.06 14.02 l-0.86 -4.1 l-0.84 4.1 l1.7 0 z M47.2 14.219999999999999 l0 2.18 c0.02 1.96 -1.54 3.82 -3.56 3.82 c-0.1 -0.02 -0.16 -0.02 -0.24 -0.02 l-0.84 0 c-0.24 0 -0.48 0 -0.72 0.02 l-0.3 0 c-2.02 0 -3.58 -1.78 -3.58 -3.76 l0 -9.7 c0 -1.96 1.58 -3.76 3.58 -3.76 c0.4 0.02 0.8 0.02 1.18 0.02 l0.9 0 c2.02 0 3.6 1.78 3.58 3.76 l0 2.62 l-3.6 0 l0 -1.48 c0.04 -1.94 -0.08 -2.02 -1.32 -2.02 c-0.48 0 -0.78 0.08 -0.78 0.7 l0 10.02 c0 0.68 0.56 0.7 1.06 0.7 c0.92 -0.04 1.04 -1.16 1.04 -2.48 l0 -0.62 l3.6 0 z M44 7.42 l0 1.58 l2.8 0 l0 -2.22 c0 -1.74 -1.36 -3.36 -3.16 -3.36 l-0.5 0 c-0.54 0 -1.06 -0.02 -1.6 -0.02 c-1.74 0 -3.18 1.6 -3.18 3.36 l0 9.7 c0 1.78 1.42 3.36 3.18 3.36 c0.42 0 0.88 0.02 1.32 0.02 l0.1 0 c0.38 0 0.78 0 1.14 -0.06 c1.56 -0.24 2.7 -1.78 2.7 -3.38 l0 -1.78 l-2.8 0 l0 0.48 c0 1.1 -0.12 2.64 -1.6 2.64 c-0.5 0 -1.3 -0.2 -1.3 -1.12 l0 -10.02 c0 -0.94 0.6 -1.1 1.18 -1.1 c1.6 0 1.72 0.54 1.72 1.92 z M52.300000000000004 12.54 l0 4.82 l4.52 0 l0 2.64 l-8.08 0 l0 -16.76 l8.08 0 l0 2.64 l-4.52 -0.02 l0 4.08 l2.84 0 l0 2.6 l-2.84 0 z M54.74 12.14 l0 -1.8 l-2.84 0 l0 -4.88 l4.52 0.02 l0 -1.84 l-7.28 0 l0 15.96 l7.28 0 l0 -1.84 l-4.52 0 l0 -5.62 l2.84 0 z M61.74 13.719999999999999 l0 6.28 l-3.56 0 l0 -16.76 l4.8 0 c0.28 0 0.56 -0.02 0.82 -0.02 c0.3 0 0.6 0.04 0.88 0.12 c1.4 0.4 2.68 1.78 2.64 3.52 l0 0.74 c0 0.86 -0.02 1.72 0 2.58 c0.04 1.32 -0.68 2.5 -1.56 3.14 l2.16 6.68 l-3.64 0 l-1.92 -6.26 c-0.22 -0.02 -0.42 -0.02 -0.62 -0.02 z M61.34 13.32 l1.3 0.02 l1.94 6.26 l2.78 0 l-2.06 -6.42 l0.22 -0.18 c0.86 -0.62 1.4 -1.68 1.4 -2.74 l0 -3.4 c0 -1.72 -1.38 -3.24 -3.12 -3.24 l-5.22 0.02 l0 15.96 l2.76 0 l0 -6.28 z M61.34 5.66 l1.68 0 c0.84 0 1.06 0.86 1.06 1.3 l0 3.3 c0 0.6 -0.26 1.28 -0.96 1.28 l-1.78 -0.02 l0 -5.86 z M61.74 6.0600000000000005 l0 5.06 c0.48 0 0.92 0.02 1.38 0.02 c0.44 0 0.56 -0.52 0.56 -0.88 l0 -3.3 c0.02 -0.48 -0.28 -0.92 -0.66 -0.9 l-1.28 0 z"/>
  </g>
</svg>

